<svg width="32" height="32" viewBox="0 0 32 32" fill="none" xmlns="http://www.w3.org/2000/svg">
<path d="M16 6.41089C12.6856 6.41089 10 9.08569 10 12.3989C10 18.1277 16 25.5989 16 25.5989C16 25.5989 22 18.1265 22 12.3989C22 9.08689 19.3144 6.41089 16 6.41089ZM16 15.7121C15.1407 15.7121 14.3166 15.3707 13.709 14.7631C13.1014 14.1555 12.76 13.3314 12.76 12.4721C12.76 11.6128 13.1014 10.7887 13.709 10.1811C14.3166 9.57344 15.1407 9.23209 16 9.23209C16.8593 9.23209 17.6834 9.57344 18.291 10.1811C18.8986 10.7887 19.24 11.6128 19.24 12.4721C19.24 13.3314 18.8986 14.1555 18.291 14.7631C17.6834 15.3707 16.8593 15.7121 16 15.7121Z" fill="white"/>
</svg>
