<svg width="32" height="32" viewBox="0 0 32 32" fill="none" xmlns="http://www.w3.org/2000/svg">
<path d="M8.52204 8.80005H23.4779C24.8889 8.80005 25.6 9.50805 25.6 10.948V21.052C25.6 22.48 24.8889 23.2 23.4779 23.2H8.52204C7.1111 23.2 6.39999 22.48 6.39999 21.052V10.948C6.39999 9.50805 7.1111 8.80005 8.52204 8.80005ZM15.9944 19.12L23.6021 12.484C23.873 12.244 24.0875 11.692 23.7488 11.2C23.4215 10.708 22.8233 10.696 22.4282 10.996L15.9944 15.628L9.57178 10.996C9.17671 10.696 8.57848 10.708 8.25114 11.2C7.91252 11.692 8.12698 12.244 8.39788 12.484L15.9944 19.12Z" fill="white"/>
</svg>
