<svg width="24" height="24" viewBox="0 0 24 24" fill="none" xmlns="http://www.w3.org/2000/svg">
<g clip-path="url(#clip0_1_50)">
<path d="M12.0034 7.95683C9.73201 7.95683 7.89987 9.76035 7.89987 11.9963C7.89987 14.2322 9.73201 16.0357 12.0034 16.0357C14.2749 16.0357 16.107 14.2322 16.107 11.9963C16.107 9.76035 14.2749 7.95683 12.0034 7.95683ZM12.0034 14.6225C10.5356 14.6225 9.33558 13.4447 9.33558 11.9963C9.33558 10.5478 10.532 9.37011 12.0034 9.37011C13.4749 9.37011 14.6713 10.5478 14.6713 11.9963C14.6713 13.4447 13.4713 14.6225 12.0034 14.6225ZM17.232 7.7916C17.232 8.31543 16.8034 8.73379 16.2749 8.73379C15.7427 8.73379 15.3177 8.31191 15.3177 7.7916C15.3177 7.27129 15.7463 6.84941 16.2749 6.84941C16.8034 6.84941 17.232 7.27129 17.232 7.7916ZM19.9499 8.74785C19.8891 7.48574 19.5963 6.36777 18.657 5.44668C17.7213 4.52559 16.5856 4.2373 15.3034 4.17402C13.982 4.1002 10.0213 4.1002 8.69987 4.17402C7.4213 4.23379 6.28558 4.52207 5.3463 5.44316C4.40701 6.36426 4.11773 7.48222 4.05344 8.74433C3.97844 10.0451 3.97844 13.9439 4.05344 15.2447C4.11416 16.5068 4.40701 17.6248 5.3463 18.5459C6.28558 19.467 7.41773 19.7553 8.69987 19.8185C10.0213 19.8924 13.982 19.8924 15.3034 19.8185C16.5856 19.7588 17.7213 19.4705 18.657 18.5459C19.5927 17.6248 19.8856 16.5068 19.9499 15.2447C20.0249 13.9439 20.0249 10.0486 19.9499 8.74785ZM18.2427 16.6404C17.9641 17.3295 17.4249 17.8603 16.7213 18.1381C15.6677 18.5494 13.1677 18.4545 12.0034 18.4545C10.8392 18.4545 8.33558 18.5459 7.28558 18.1381C6.58558 17.8639 6.0463 17.333 5.76416 16.6404C5.3463 15.6033 5.44273 13.1424 5.44273 11.9963C5.44273 10.8502 5.34987 8.38574 5.76416 7.35215C6.04273 6.66308 6.58201 6.13223 7.28558 5.85449C8.33915 5.44316 10.8392 5.53809 12.0034 5.53809C13.1677 5.53809 15.6713 5.44668 16.7213 5.85449C17.4213 6.12871 17.9606 6.65957 18.2427 7.35215C18.6606 8.38926 18.5641 10.8502 18.5641 11.9963C18.5641 13.1424 18.6606 15.6068 18.2427 16.6404Z" fill="white"/>
</g>
<defs>
<clipPath id="clip0_1_50">
<rect width="16" height="18" fill="white" transform="translate(4.00012 3)"/>
</clipPath>
</defs>
</svg>
